<mxfile host="Electron" modified="2023-10-19T22:25:46.710Z" agent="Mozilla/5.0 (Windows NT 10.0; Win64; x64) AppleWebKit/537.36 (KHTML, like Gecko) draw.io/21.7.5 Chrome/114.0.5735.289 Electron/25.8.1 Safari/537.36" etag="N_h9LjtY9KFpF-X4HbWD" version="21.7.5" type="device">
  <diagram name="PÃ¡gina-1" id="L6PozpuvNDuWOApepH__">
    <mxGraphModel dx="1877" dy="621" grid="1" gridSize="10" guides="1" tooltips="1" connect="1" arrows="1" fold="1" page="1" pageScale="1" pageWidth="827" pageHeight="1169" math="0" shadow="0">
      <root>
        <mxCell id="0" />
        <mxCell id="1" parent="0" />
        <mxCell id="wH9VXGaHEsjdZ3C2gFM8-5" value="" style="shape=image;verticalLabelPosition=bottom;labelBackgroundColor=default;verticalAlign=top;aspect=fixed;imageAspect=0;image=https://static.thenounproject.com/png/3070675-200.png;" vertex="1" parent="1">
          <mxGeometry x="11" y="300" width="100" height="100" as="geometry" />
        </mxCell>
        <mxCell id="wH9VXGaHEsjdZ3C2gFM8-16" style="edgeStyle=orthogonalEdgeStyle;rounded=0;orthogonalLoop=1;jettySize=auto;html=1;exitX=0;exitY=0.5;exitDx=0;exitDy=0;entryX=1.014;entryY=0.623;entryDx=0;entryDy=0;entryPerimeter=0;" edge="1" parent="1" source="wH9VXGaHEsjdZ3C2gFM8-8" target="wH9VXGaHEsjdZ3C2gFM8-13">
          <mxGeometry relative="1" as="geometry" />
        </mxCell>
        <mxCell id="wH9VXGaHEsjdZ3C2gFM8-17" style="edgeStyle=orthogonalEdgeStyle;rounded=0;orthogonalLoop=1;jettySize=auto;html=1;exitX=1;exitY=0.5;exitDx=0;exitDy=0;" edge="1" parent="1" source="wH9VXGaHEsjdZ3C2gFM8-8" target="wH9VXGaHEsjdZ3C2gFM8-14">
          <mxGeometry relative="1" as="geometry" />
        </mxCell>
        <mxCell id="wH9VXGaHEsjdZ3C2gFM8-8" value="" style="shape=image;verticalLabelPosition=bottom;labelBackgroundColor=default;verticalAlign=top;aspect=fixed;imageAspect=0;image=https://upload.wikimedia.org/wikipedia/commons/thumb/3/38/Jupyter_logo.svg/1767px-Jupyter_logo.svg.png;" vertex="1" parent="1">
          <mxGeometry x="235.31" y="170" width="79.38" height="92.03" as="geometry" />
        </mxCell>
        <mxCell id="wH9VXGaHEsjdZ3C2gFM8-10" value="" style="shape=image;verticalLabelPosition=bottom;labelBackgroundColor=default;verticalAlign=top;aspect=fixed;imageAspect=0;image=https://cdn-icons-png.flaticon.com/512/8242/8242984.png;" vertex="1" parent="1">
          <mxGeometry x="-1" y="440" width="112" height="112" as="geometry" />
        </mxCell>
        <mxCell id="wH9VXGaHEsjdZ3C2gFM8-13" value="" style="shape=image;verticalLabelPosition=bottom;labelBackgroundColor=default;verticalAlign=top;aspect=fixed;imageAspect=0;image=https://cdn-icons-png.flaticon.com/512/627/627558.png;" vertex="1" parent="1">
          <mxGeometry x="-11" y="140.03" width="122" height="122" as="geometry" />
        </mxCell>
        <mxCell id="wH9VXGaHEsjdZ3C2gFM8-14" value="" style="shape=image;verticalLabelPosition=bottom;labelBackgroundColor=default;verticalAlign=top;aspect=fixed;imageAspect=0;image=https://miro.medium.com/v2/resize:fit:940/1*ORHjAuLiy0ksWcQ65Fzepw.png;" vertex="1" parent="1">
          <mxGeometry x="360" y="325.63" width="195" height="48.75" as="geometry" />
        </mxCell>
        <mxCell id="wH9VXGaHEsjdZ3C2gFM8-21" style="edgeStyle=orthogonalEdgeStyle;rounded=0;orthogonalLoop=1;jettySize=auto;html=1;exitX=0;exitY=0.5;exitDx=0;exitDy=0;" edge="1" parent="1" source="wH9VXGaHEsjdZ3C2gFM8-18" target="wH9VXGaHEsjdZ3C2gFM8-5">
          <mxGeometry relative="1" as="geometry" />
        </mxCell>
        <mxCell id="wH9VXGaHEsjdZ3C2gFM8-23" style="edgeStyle=orthogonalEdgeStyle;rounded=0;orthogonalLoop=1;jettySize=auto;html=1;exitX=1;exitY=0.5;exitDx=0;exitDy=0;entryX=0;entryY=0.5;entryDx=0;entryDy=0;" edge="1" parent="1" source="wH9VXGaHEsjdZ3C2gFM8-18" target="wH9VXGaHEsjdZ3C2gFM8-14">
          <mxGeometry relative="1" as="geometry" />
        </mxCell>
        <mxCell id="wH9VXGaHEsjdZ3C2gFM8-18" value="" style="shape=image;verticalLabelPosition=bottom;labelBackgroundColor=default;verticalAlign=top;aspect=fixed;imageAspect=0;image=https://upload.wikimedia.org/wikipedia/commons/thumb/3/38/Jupyter_logo.svg/1767px-Jupyter_logo.svg.png;" vertex="1" parent="1">
          <mxGeometry x="235.31" y="303.99" width="79.38" height="92.03" as="geometry" />
        </mxCell>
        <mxCell id="wH9VXGaHEsjdZ3C2gFM8-22" style="edgeStyle=orthogonalEdgeStyle;rounded=0;orthogonalLoop=1;jettySize=auto;html=1;exitX=0;exitY=0.5;exitDx=0;exitDy=0;entryX=0.988;entryY=0.407;entryDx=0;entryDy=0;entryPerimeter=0;sourcePerimeterSpacing=20;" edge="1" parent="1" source="wH9VXGaHEsjdZ3C2gFM8-19" target="wH9VXGaHEsjdZ3C2gFM8-10">
          <mxGeometry relative="1" as="geometry" />
        </mxCell>
        <mxCell id="wH9VXGaHEsjdZ3C2gFM8-24" style="edgeStyle=orthogonalEdgeStyle;rounded=0;orthogonalLoop=1;jettySize=auto;html=1;exitX=1;exitY=0.5;exitDx=0;exitDy=0;entryX=0.5;entryY=1;entryDx=0;entryDy=0;" edge="1" parent="1" source="wH9VXGaHEsjdZ3C2gFM8-19" target="wH9VXGaHEsjdZ3C2gFM8-14">
          <mxGeometry relative="1" as="geometry" />
        </mxCell>
        <mxCell id="wH9VXGaHEsjdZ3C2gFM8-19" value="" style="shape=image;verticalLabelPosition=bottom;labelBackgroundColor=default;verticalAlign=top;aspect=fixed;imageAspect=0;image=https://upload.wikimedia.org/wikipedia/commons/thumb/3/38/Jupyter_logo.svg/1767px-Jupyter_logo.svg.png;" vertex="1" parent="1">
          <mxGeometry x="235.31" y="440" width="79.38" height="92.03" as="geometry" />
        </mxCell>
        <mxCell id="wH9VXGaHEsjdZ3C2gFM8-26" value="AIR_CIA_tratamento.ipynb" style="text;html=1;align=center;verticalAlign=middle;resizable=0;points=[];autosize=1;strokeColor=none;fillColor=none;" vertex="1" parent="1">
          <mxGeometry x="190" y="532.03" width="170" height="30" as="geometry" />
        </mxCell>
        <mxCell id="wH9VXGaHEsjdZ3C2gFM8-27" value="VRA_tratamento.ipynb" style="text;html=1;align=center;verticalAlign=middle;resizable=0;points=[];autosize=1;strokeColor=none;fillColor=none;" vertex="1" parent="1">
          <mxGeometry x="205" y="400" width="140" height="30" as="geometry" />
        </mxCell>
        <mxCell id="wH9VXGaHEsjdZ3C2gFM8-28" value="dimensao_api.ipynb" style="text;html=1;align=center;verticalAlign=middle;resizable=0;points=[];autosize=1;strokeColor=none;fillColor=none;" vertex="1" parent="1">
          <mxGeometry x="210" y="250" width="130" height="30" as="geometry" />
        </mxCell>
        <mxCell id="wH9VXGaHEsjdZ3C2gFM8-31" style="edgeStyle=orthogonalEdgeStyle;rounded=0;orthogonalLoop=1;jettySize=auto;html=1;exitX=0;exitY=0.5;exitDx=0;exitDy=0;" edge="1" parent="1" source="wH9VXGaHEsjdZ3C2gFM8-30">
          <mxGeometry relative="1" as="geometry">
            <mxPoint x="560" y="354" as="targetPoint" />
          </mxGeometry>
        </mxCell>
        <mxCell id="wH9VXGaHEsjdZ3C2gFM8-33" style="edgeStyle=orthogonalEdgeStyle;rounded=0;orthogonalLoop=1;jettySize=auto;html=1;exitX=1;exitY=0.5;exitDx=0;exitDy=0;entryX=0;entryY=0.5;entryDx=0;entryDy=0;" edge="1" parent="1" source="wH9VXGaHEsjdZ3C2gFM8-30" target="wH9VXGaHEsjdZ3C2gFM8-32">
          <mxGeometry relative="1" as="geometry" />
        </mxCell>
        <mxCell id="wH9VXGaHEsjdZ3C2gFM8-30" value="" style="shape=image;verticalLabelPosition=bottom;labelBackgroundColor=default;verticalAlign=top;aspect=fixed;imageAspect=0;image=https://upload.wikimedia.org/wikipedia/commons/thumb/3/38/Jupyter_logo.svg/1767px-Jupyter_logo.svg.png;" vertex="1" parent="1">
          <mxGeometry x="620" y="307.97" width="79.38" height="92.03" as="geometry" />
        </mxCell>
        <mxCell id="wH9VXGaHEsjdZ3C2gFM8-32" value="" style="shape=image;verticalLabelPosition=bottom;labelBackgroundColor=default;verticalAlign=top;aspect=fixed;imageAspect=0;image=https://miro.medium.com/v2/resize:fit:940/1*ORHjAuLiy0ksWcQ65Fzepw.png;" vertex="1" parent="1">
          <mxGeometry x="750" y="329.61" width="195" height="48.75" as="geometry" />
        </mxCell>
        <mxCell id="wH9VXGaHEsjdZ3C2gFM8-34" value="create_views_sql" style="text;html=1;align=center;verticalAlign=middle;resizable=0;points=[];autosize=1;strokeColor=none;fillColor=none;" vertex="1" parent="1">
          <mxGeometry x="599.69" y="396.02" width="120" height="30" as="geometry" />
        </mxCell>
        <mxCell id="wH9VXGaHEsjdZ3C2gFM8-35" value="Arquivos insumos&lt;br&gt;para views" style="text;html=1;align=center;verticalAlign=middle;resizable=0;points=[];autosize=1;strokeColor=none;fillColor=none;" vertex="1" parent="1">
          <mxGeometry x="460.00000000000006" y="365" width="120" height="40" as="geometry" />
        </mxCell>
        <mxCell id="wH9VXGaHEsjdZ3C2gFM8-36" value="Arquivos das Views criadas" style="text;html=1;align=center;verticalAlign=middle;resizable=0;points=[];autosize=1;strokeColor=none;fillColor=none;" vertex="1" parent="1">
          <mxGeometry x="800" y="378.36" width="170" height="30" as="geometry" />
        </mxCell>
      </root>
    </mxGraphModel>
  </diagram>
</mxfile>
